<svg xmlns="http://www.w3.org/2000/svg" style="display:none">
  <symbol id="logo" viewBox="0 0 24 24">
    <rect x="2" y="2" width="20" height="20" rx="5" fill="none" stroke="currentColor" stroke-width="1.2"/>
    <path d="M6 16 L10 8 L14 16" fill="none" stroke="currentColor" stroke-width="1.4" stroke-linecap="round" stroke-linejoin="round"/>
  </symbol>
  <symbol id="sun" viewBox="0 0 24 24"><circle cx="12" cy="12" r="4" fill="currentColor"/><g stroke="currentColor" stroke-width="1.2"><path d="M12 2v2"/><path d="M12 20v2"/><path d="M2 12h2"/><path d="M20 12h2"/><path d="M4.9 4.9l1.4 1.4"/><path d="M17.7 17.7l1.4 1.4"/><path d="M4.9 19.1l1.4-1.4"/><path d="M17.7 6.3l1.4-1.4"/></g></symbol>
  <symbol id="menu" viewBox="0 0 24 24"><path d="M4 7h16M4 12h16M4 17h16" stroke="currentColor" stroke-width="1.6" stroke-linecap="round"/></symbol>
  <symbol id="ai" viewBox="0 0 24 24"><path d="M12 2v20M2 12h20" stroke="currentColor" stroke-width="1.2" stroke-linecap="round"/></symbol>
  <symbol id="ux" viewBox="0 0 24 24"><rect x="3" y="3" width="18" height="18" rx="3" stroke="currentColor" stroke-width="1.2" fill="none"/><circle cx="8.5" cy="8.5" r="1.6" fill="currentColor"/></symbol>
  <symbol id="code" viewBox="0 0 24 24"><path d="M8 9l-4 3 4 3" stroke="currentColor" stroke-width="1.4" stroke-linecap="round" stroke-linejoin="round" fill="none"/><path d="M16 9l4 3-4 3" stroke="currentColor" stroke-width="1.4" stroke-linecap="round" stroke-linejoin="round" fill="none"/></symbol>
  <symbol id="github" viewBox="0 0 24 24">…</symbol>
  <symbol id="linkedin" viewBox="0 0 24 24">…</symbol>
  <symbol id="instagram" viewBox="0 0 24 24">…</symbol>
</svg>